<svg width="171" height="40" viewBox="0 0 171 40" fill="none" xmlns="http://www.w3.org/2000/svg">
<g clip-path="url(#clip0_4257_27217)">
<path d="M81.3612 31.1879C79.7203 31.1879 79.0004 31.1264 77.7006 30.7478C77.4823 30.6864 77.2606 30.6113 77.032 30.5328C76.4418 30.335 75.8345 30.1303 75.3979 30.1303C74.9612 30.1303 74.8896 30.2838 74.7667 30.6011L74.7053 30.7614H73.8695V24.1397H74.6235L74.661 24.3341C75.8789 30.3077 79.3109 30.3077 81.3646 30.3077C85.9394 30.3077 86.1714 26.6574 86.1714 25.9239C86.1714 23.355 83.8891 22.3213 82.5245 21.9324L79.2426 20.9294C75.8823 19.9026 74.3881 18.2821 74.3881 15.6757C74.3881 12.0629 77.1173 9.43945 80.8836 9.43945C82.5552 9.43945 83.5139 9.87954 84.2166 10.2002C84.6465 10.4015 84.9945 10.5516 85.3629 10.5516C85.7313 10.5516 85.7313 10.5516 86.0111 10.074L86.0793 9.95459H86.8606V15.6041H86.0725L86.035 15.3994C85.8371 14.2122 84.8785 10.323 80.8836 10.323C79.2222 10.323 76.4145 11.094 76.4145 13.9904C76.4145 16.2591 78.4478 17.0778 80.3514 17.668L83.8072 18.7529L84.0222 18.8211C85.5915 19.3055 88.8563 20.3051 88.8563 24.2113C88.8563 27.5921 86.2294 31.1879 81.368 31.1879" fill="white"/>
<path d="M100.803 31.161C99.2443 31.161 98.3505 30.6015 97.9002 29.3017C97.4533 30.1239 96.5492 31.161 94.1543 31.161C90.9134 31.161 90.2311 29.5235 90.2311 28.152C90.2311 25.6685 92.1552 25.0987 94.0144 24.5529C94.2908 24.471 94.5705 24.3925 94.8503 24.297L95.0072 24.2459C97.4191 23.4339 97.791 23.3077 97.791 21.2471C97.791 19.422 97.501 18.5486 95.8362 18.5486C94.956 18.5486 93.9087 18.7499 93.9087 19.7051C93.9087 20.077 93.9667 20.4693 94.011 20.7832C94.0486 21.022 94.0759 21.213 94.0759 21.3597C94.0759 22.0693 93.5334 22.5435 92.7215 22.5435C91.3603 22.5435 91.0806 21.9567 91.0806 21.0731C91.0806 19.4288 92.5509 17.665 95.7748 17.665C100.169 17.665 100.64 20.5853 100.64 21.8441V28.9503C100.64 30.025 100.953 30.1068 101.397 30.1068C101.8 30.1068 102.205 29.967 102.567 29.6975L102.765 29.5542L102.905 29.7486L103.133 30.0659L103.273 30.2535L103.082 30.3968C102.407 30.9188 101.677 31.1576 100.797 31.1576M97.6989 24.1435C97.5113 24.2731 97.2759 24.3857 97.0371 24.4881L94.8878 25.3444C93.7245 25.8049 93.1582 26.6237 93.1582 27.8348C93.1582 29.3597 93.7722 30.1034 95.0277 30.1034C97.2315 30.1034 97.6989 28.077 97.6989 26.378V24.1435Z" fill="white"/>
<path d="M109.209 38.7516H101.878V37.8714H104.075V18.9171H101.878V18.0403H106.954V19.7119C107.742 18.3985 109.08 17.665 110.738 17.665C114.132 17.665 116.998 20.7149 116.998 24.3277C116.998 27.9405 113.982 31.161 110.54 31.161C108.558 31.161 107.531 30.0761 107.012 29.1823V37.868H109.206V38.7482L109.209 38.7516ZM110.622 18.5452C109.438 18.5452 108.568 18.9444 107.964 19.7597C107.238 20.6979 107.012 21.8987 107.012 24.9247C107.012 28.5273 108.155 30.2774 110.509 30.2774C113.228 30.2774 113.665 28.4215 113.665 23.9866C113.665 20.0736 112.809 18.5452 110.618 18.5452H110.622Z" fill="white"/>
<path d="M129.6 30.0557C129.47 30.0932 129.337 30.1068 129.208 30.1068C128.764 30.1068 128.45 30.025 128.45 28.9503V21.8441C128.45 20.5853 127.976 17.665 123.585 17.665C120.362 17.665 118.891 19.4288 118.891 21.0697C118.891 21.9533 119.168 22.5367 120.532 22.5367C121.341 22.5367 121.887 22.0625 121.887 21.3563C121.887 21.2062 121.856 21.0083 121.822 20.7763C121.777 20.4625 121.716 20.0667 121.716 19.6983C121.716 18.7431 122.767 18.5418 123.64 18.5418C125.305 18.5418 125.598 19.4117 125.598 21.2369C125.598 23.2974 125.226 23.4271 122.814 24.2356L122.654 24.2902C122.378 24.3823 122.098 24.4608 121.822 24.5461C119.962 25.0953 118.035 25.6616 118.035 28.1452C118.035 29.5201 118.721 31.1576 121.962 31.1576C124.367 31.1576 125.264 30.1205 125.707 29.2983C126.158 30.5947 127.055 31.1576 128.617 31.1576C129.361 31.1576 129.917 30.9768 130.333 30.7584H136.938V29.8714H134.738V23.6659C134.738 20.8275 136.628 18.5998 139.036 18.5998C140.715 18.5998 140.964 20.036 140.964 20.8957V29.8748H138.767V30.7618H146.101V29.8748H143.904V21.7827C143.904 19.1968 142.26 17.7162 139.405 17.7162C136.549 17.7162 135.328 19.306 134.68 20.425V18.0301H129.603V18.9137H131.8V29.8714H130.095C130.095 29.8714 129.726 30.0181 129.603 30.0522M125.516 26.3746C125.516 28.0736 125.052 30.1034 122.845 30.1034C121.59 30.1034 120.976 29.3563 120.976 27.8314C120.976 26.6237 121.542 25.8049 122.705 25.3444L124.848 24.4881C125.131 24.3653 125.346 24.2527 125.513 24.1435V26.378L125.516 26.3746Z" fill="white"/>
<path d="M152.167 31.161C148.766 31.161 145.334 29.0936 145.334 24.4676C145.334 20.6501 148.36 17.6616 152.229 17.6616C154.572 17.6616 157.093 18.7567 157.093 21.1584C157.093 22.1239 156.397 22.7687 155.367 22.7687C154.337 22.7687 153.757 22.3047 153.757 21.5883C153.757 21.2778 153.863 20.8889 153.972 20.5136C154.064 20.1998 154.153 19.8757 154.153 19.6744C154.153 18.9341 153.184 18.5452 152.229 18.5452C150.983 18.5452 148.67 18.5452 148.67 24.5563C148.67 28.5136 149.759 30.2808 152.194 30.2808C155.319 30.2808 156.012 28.2544 156.343 27.2787L156.363 27.2173L156.432 27.016L156.64 27.0603L157.069 27.1422L157.325 27.1934L157.254 27.4424C156.561 29.8748 154.801 31.161 152.167 31.161Z" fill="white"/>
<path d="M168.382 31.161C166.823 31.161 165.929 30.6015 165.475 29.3017C165.032 30.1239 164.135 31.161 161.736 31.161C158.489 31.161 157.81 29.5235 157.81 28.152C157.81 25.6684 159.734 25.0987 161.593 24.5529C161.873 24.4676 162.156 24.3891 162.429 24.297L162.586 24.2458C165.005 23.4339 165.37 23.3077 165.37 21.2471C165.37 19.4186 165.08 18.5452 163.415 18.5452C162.535 18.5452 161.487 18.7499 161.487 19.7017C161.487 20.0736 161.549 20.4659 161.593 20.7797C161.627 21.0117 161.661 21.2096 161.661 21.3597C161.661 22.0659 161.116 22.5435 160.304 22.5435C158.942 22.5435 158.663 21.9567 158.663 21.0731C158.663 19.4288 160.13 17.6616 163.357 17.6616C167.751 17.6616 168.222 20.5887 168.222 21.8475V28.9537C168.222 30.0249 168.532 30.1102 168.979 30.1102C169.375 30.1102 169.784 29.9704 170.146 29.6974L170.344 29.5542L170.487 29.7486L170.716 30.0659L170.852 30.2569L170.664 30.4002C169.989 30.9222 169.259 31.161 168.379 31.161M165.281 24.1469C165.09 24.2765 164.858 24.3891 164.623 24.4915L162.473 25.3478C161.307 25.8083 160.74 26.6271 160.74 27.8382C160.74 29.3631 161.351 30.1068 162.61 30.1068C164.814 30.1068 165.278 28.0804 165.278 26.3815V24.1469H165.281Z" fill="white"/>
<path d="M65.6546 0H64.7404V39.9966H65.6546V0Z" fill="white"/>
<path d="M40.8733 38.7002C44.1279 38.7002 46.533 37.8883 48.0307 36.2849C49.5249 34.6849 50.2789 32.2832 50.2789 29.1378C50.2789 26.3642 49.9514 24.5561 49.31 23.7749C48.6959 22.9459 47.2017 22.5399 44.7591 22.5399C44.5407 22.5399 43.8755 22.5399 43.6128 22.441C43.5207 22.3966 43.3876 22.2943 43.3876 21.9497C43.3876 21.7689 43.3876 21.2094 44.4998 21.2094L45.2094 21.2606H59.7902C60.2644 21.2606 60.5817 21.3254 60.7625 21.4585L60.8136 21.4994L60.8751 21.5267C60.9569 21.5574 61.0695 21.7177 61.0695 21.9497C61.0695 22.1817 60.9365 22.3454 60.6704 22.441C60.452 22.5092 60.1382 22.5399 59.6981 22.5399H59.1727C57.8934 22.5399 56.9552 22.9254 56.3002 23.7203C55.6452 24.5152 55.3279 26.1629 55.3279 28.7489C55.3279 30.7173 55.3586 32.406 55.4098 33.6307C55.5053 34.8555 55.594 35.6299 55.6793 36.0904C55.8294 36.7182 55.9318 37.0013 55.9966 37.1378L56.0239 37.2026L56.0751 37.2606C56.133 37.3288 56.1706 37.438 56.1706 37.5165C56.1706 37.7246 56.0989 37.9702 55.768 37.9702C55.6896 37.9702 55.4098 37.8678 54.9356 37.6734C54.4648 37.4755 53.9974 37.3766 53.5642 37.3766C52.6908 37.3766 50.8691 37.8133 47.9898 38.7071C45.1753 39.5531 40.6107 39.9864 40.6107 39.9864L40.1603 40.0034C29.5369 40.0034 23.9898 31.2154 21.6154 27.4695L21.5608 27.3774L21.4652 27.2307C21.322 27.0022 21.1923 26.7975 21.0763 26.6167L9.3919 8.75739V32.8017C9.3919 33.5796 9.58635 34.4256 10.0162 34.951C10.9987 36.1484 12.2507 36.6738 14.0691 36.6738C14.3215 36.6465 14.6081 36.6295 14.8606 36.6295C16.3207 36.6295 16.4776 37.4789 16.4776 37.844C16.4776 38.1408 16.3719 39.1062 14.9629 39.1062H1.61365C0.160341 39.1062 0 38.2909 0 37.9463C0 37.1344 0.579957 36.899 0.760768 36.8478C1.00981 36.742 1.37484 36.6738 1.76716 36.6738C3.47292 36.6738 5.56077 35.8346 6.23284 34.8657C6.57399 34.3779 6.87079 33.3203 6.87079 32.8017V6.20899C6.28401 5.72114 5.64606 5.40729 4.96716 5.27424C4.17569 5.11731 3.13177 5.03884 1.8661 5.03884C1.57612 5.03884 1.28614 5.00132 0.982516 4.92285C0.463966 4.71134 0.194456 4.33948 0.194456 3.8721C0.194456 3.5753 0.313859 2.59961 1.81151 2.59961H12.6499C14.3181 2.59961 15.6213 5.59492 15.6793 5.72114L15.7237 5.80302C17.0542 8.19108 21.5369 16.2218 23.4473 19.1727C23.6009 19.4081 23.9488 20.0222 24.3923 20.8C25.7092 23.1369 28.1655 27.4764 30.1237 30.151C34.1322 35.6333 34.487 35.8482 36.336 37.1309C38.3966 38.5638 39.2972 38.5774 40.5083 38.7002C40.597 38.7105 40.8733 38.7037 40.8733 38.7037" fill="white"/>
<path d="M34.0298 32.9383C33.9991 32.9383 33.965 32.9383 33.9343 32.928C33.5352 32.8496 33.31 32.5289 32.0307 30.731C31.7373 30.2909 31.4166 29.8236 31.0823 29.3255C28.6772 25.7775 25.0644 20.4419 25.0166 18.5519C25.2793 11.688 27.1761 6.84361 30.8162 3.7596C33.4976 1.47389 36.585 0.317383 40 0.317383C40.9859 0.317383 42.0162 0.419728 43.0703 0.607361C44.3838 0.842756 45.9258 1.35107 46.8469 1.70928C47.6315 2.01632 49.4669 2.67133 50.0673 2.88625L50.3607 2.99201C50.6814 3.11141 50.968 3.17623 51.2204 3.17623C52.029 3.17623 52.3292 2.55192 52.6157 1.8048C52.9774 0.94169 53.2162 0.631242 53.571 0.583481C53.8712 0.6483 53.9838 0.996274 54.0145 1.28625V1.34766L53.9974 2.20736L53.9838 3.27517C53.9326 6.28071 53.8371 12.5374 53.7961 12.8274C53.7825 12.9229 53.7791 12.9707 53.7654 13.0287C53.7484 13.0935 53.646 13.189 53.6051 13.189C53.4584 13.2095 53.3867 13.2163 53.3253 13.2163C53.1138 13.2163 52.9978 13.1071 52.9194 12.8342C52.8614 12.6671 52.8 12.2372 52.7386 11.7869C52.6123 10.8931 52.4554 9.76045 52.22 9.08497C52.1279 8.83593 52.0631 8.61418 51.9983 8.40949L51.9573 8.27644C51.6094 7.1677 51.4149 6.56045 50.0162 5.29478C48.0989 3.59585 45.8678 2.50075 43.3944 2.05043C42.794 1.94468 42.1902 1.89009 41.5897 1.89009C38.2055 1.89009 34.9987 3.60949 33.2179 6.37282C31.1846 9.54553 30.2669 12.7251 29.7211 18.5178C29.687 18.8453 29.6699 19.2615 29.6699 19.7562C29.6699 21.0764 29.8132 23.0654 30.2226 24.7404C30.7616 26.9954 32.2047 30.076 33.9821 32.7916L34.0776 32.9349C34.0776 32.9349 34.0503 32.9417 34.0366 32.9417" fill="white"/>
</g>
<defs>
<clipPath id="clip0_4257_27217">
<rect width="170.855" height="40" fill="white"/>
</clipPath>
</defs>
</svg>
