<svg width="136" height="32" viewBox="0 0 136 32" fill="none" xmlns="http://www.w3.org/2000/svg">
<g clip-path="url(#clip0_4251_46297)">
<path d="M64.4364 24.9505C63.1369 24.9505 62.5668 24.9014 61.5374 24.5984C61.3644 24.5493 61.1888 24.4892 61.0078 24.4265C60.5404 24.2682 60.0594 24.1044 59.7136 24.1044C59.3678 24.1044 59.311 24.2272 59.2138 24.4811L59.1651 24.6093H58.5032V19.3119H59.1003L59.13 19.4675C60.0946 24.2463 62.8126 24.2463 64.4391 24.2463C68.0623 24.2463 68.2461 21.3261 68.2461 20.7393C68.2461 18.6842 66.4385 17.8573 65.3578 17.5461L62.7586 16.7437C60.0973 15.9222 58.9139 14.6259 58.9139 12.5408C58.9139 9.65052 61.0753 7.55176 64.0582 7.55176C65.3821 7.55176 66.1413 7.90383 66.6979 8.16037C67.0383 8.3214 67.3139 8.44148 67.6057 8.44148C67.8975 8.44148 67.8975 8.44148 68.1191 8.05939L68.1731 7.96387H68.7918V12.4834H68.1677L68.138 12.3197C67.9813 11.3699 67.2221 8.25862 64.0582 8.25862C62.7424 8.25862 60.5188 8.87542 60.5188 11.1925C60.5188 13.0075 62.1291 13.6625 63.6367 14.1346L66.3737 15.0025L66.5439 15.0571C67.7867 15.4446 70.3724 16.2443 70.3724 19.3692C70.3724 22.0739 68.292 24.9505 64.4418 24.9505" fill="#575959"/>
<path d="M79.8345 24.9286C78.5997 24.9286 77.8918 24.481 77.5352 23.4412C77.1813 24.0989 76.4653 24.9286 74.5686 24.9286C72.0018 24.9286 71.4614 23.6186 71.4614 22.5214C71.4614 20.5346 72.9853 20.0788 74.4578 19.6421C74.6766 19.5766 74.8982 19.5138 75.1197 19.4374L75.244 19.3965C77.1542 18.7469 77.4487 18.646 77.4487 16.9975C77.4487 15.5374 77.2191 14.8387 75.9006 14.8387C75.2035 14.8387 74.374 14.9997 74.374 15.7639C74.374 16.0614 74.42 16.3752 74.4551 16.6263C74.4848 16.8174 74.5064 16.9702 74.5064 17.0876C74.5064 17.6552 74.0768 18.0346 73.4338 18.0346C72.3557 18.0346 72.1342 17.5652 72.1342 16.8583C72.1342 15.5428 73.2987 14.1318 75.8519 14.1318C79.3319 14.1318 79.7048 16.468 79.7048 17.4751V23.1601C79.7048 24.0198 79.9534 24.0853 80.3046 24.0853C80.6234 24.0853 80.9449 23.9734 81.2313 23.7578L81.388 23.6431L81.4988 23.7987L81.6798 24.0525L81.7906 24.2026L81.6393 24.3173C81.1044 24.7348 80.5262 24.9259 79.8291 24.9259M77.3758 19.3146C77.2272 19.4183 77.0408 19.5084 76.8516 19.5903L75.1495 20.2753C74.2281 20.6437 73.7796 21.2987 73.7796 22.2676C73.7796 23.4876 74.266 24.0825 75.2602 24.0825C77.0056 24.0825 77.3758 22.4614 77.3758 21.1022V19.3146Z" fill="#575959"/>
<path d="M86.4918 31.0011H80.6855V30.297H82.4255V15.1335H80.6855V14.432H84.7059V15.7694C85.33 14.7186 86.3892 14.1318 87.7023 14.1318C90.3906 14.1318 92.6602 16.5718 92.6602 19.462C92.6602 22.3522 90.2717 24.9286 87.5456 24.9286C85.9758 24.9286 85.1625 24.0607 84.7518 23.3457V30.2942H86.4891V30.9984L86.4918 31.0011ZM87.6104 14.836C86.6729 14.836 85.9839 15.1553 85.5057 15.8076C84.9302 16.5581 84.7518 17.5188 84.7518 19.9396C84.7518 22.8216 85.657 24.2217 87.5212 24.2217C89.6746 24.2217 90.0205 22.737 90.0205 19.1891C90.0205 16.0587 89.3423 14.836 87.6077 14.836H87.6104Z" fill="#575959"/>
<path d="M102.641 24.0443C102.538 24.0744 102.433 24.0853 102.33 24.0853C101.979 24.0853 101.73 24.0198 101.73 23.1601V17.4751C101.73 16.468 101.355 14.1318 97.8774 14.1318C95.3241 14.1318 94.1596 15.5428 94.1596 16.8556C94.1596 17.5625 94.3785 18.0291 95.4592 18.0291C96.0995 18.0291 96.5318 17.6498 96.5318 17.0848C96.5318 16.9648 96.5075 16.8065 96.4805 16.6209C96.4454 16.3698 96.3967 16.0532 96.3967 15.7584C96.3967 14.9943 97.2289 14.8332 97.9206 14.8332C99.2391 14.8332 99.4715 15.5292 99.4715 16.9893C99.4715 18.6378 99.177 18.7415 97.2667 19.3883L97.1398 19.432C96.9209 19.5057 96.6994 19.5684 96.4805 19.6367C95.008 20.0761 93.4814 20.5291 93.4814 22.516C93.4814 23.6158 94.0245 24.9259 96.5913 24.9259C98.4961 24.9259 99.2067 24.0962 99.5579 23.4384C99.9146 24.4755 100.625 24.9259 101.863 24.9259C102.452 24.9259 102.892 24.7812 103.222 24.6065H108.452V23.897H106.71V18.9325C106.71 16.6618 108.207 14.8796 110.114 14.8796C111.443 14.8796 111.641 16.0286 111.641 16.7164V23.8997H109.901V24.6093H115.71V23.8997H113.97V17.426C113.97 15.3573 112.667 14.1728 110.406 14.1728C108.144 14.1728 107.177 15.4446 106.664 16.3398V14.4239H102.643V15.1307H104.383V23.897H103.033C103.033 23.897 102.741 24.0143 102.643 24.0416M99.4066 21.0995C99.4066 22.4587 99.0392 24.0825 97.2911 24.0825C96.2968 24.0825 95.8104 23.4848 95.8104 22.2649C95.8104 21.2987 96.259 20.6437 97.1803 20.2753L98.877 19.5903C99.1013 19.492 99.2715 19.4019 99.4039 19.3146V21.1022L99.4066 21.0995Z" fill="#575959"/>
<path d="M120.514 24.9284C117.82 24.9284 115.102 23.2745 115.102 19.5737C115.102 16.5197 117.498 14.1289 120.562 14.1289C122.418 14.1289 124.415 15.005 124.415 16.9263C124.415 17.6987 123.864 18.2145 123.048 18.2145C122.232 18.2145 121.773 17.8434 121.773 17.2702C121.773 17.0219 121.856 16.7107 121.943 16.4105C122.016 16.1594 122.086 15.9002 122.086 15.7391C122.086 15.1469 121.319 14.8358 120.562 14.8358C119.576 14.8358 117.744 14.8358 117.744 19.6446C117.744 22.8105 118.606 24.2243 120.535 24.2243C123.01 24.2243 123.559 22.6031 123.821 21.8226L123.837 21.7734L123.891 21.6124L124.056 21.6479L124.396 21.7134L124.599 21.7543L124.542 21.9536C123.994 23.8995 122.599 24.9284 120.514 24.9284Z" fill="#575959"/>
<path d="M133.355 24.9284C132.121 24.9284 131.413 24.4808 131.053 23.441C130.702 24.0987 129.992 24.9284 128.092 24.9284C125.52 24.9284 124.982 23.6184 124.982 22.5212C124.982 20.5344 126.506 20.0786 127.979 19.6419C128.2 19.5737 128.425 19.5109 128.641 19.4372L128.765 19.3963C130.681 18.7467 130.97 18.6458 130.97 16.9973C130.97 15.5344 130.74 14.8358 129.422 14.8358C128.724 14.8358 127.895 14.9995 127.895 15.761C127.895 16.0585 127.944 16.3723 127.979 16.6234C128.006 16.809 128.033 16.9673 128.033 17.0874C128.033 17.6523 127.601 18.0344 126.957 18.0344C125.879 18.0344 125.658 17.565 125.658 16.8581C125.658 15.5426 126.82 14.1289 129.376 14.1289C132.856 14.1289 133.228 16.4706 133.228 17.4776V23.1626C133.228 24.0196 133.474 24.0878 133.828 24.0878C134.142 24.0878 134.466 23.9759 134.752 23.7576L134.909 23.6429L135.023 23.7985L135.204 24.0523L135.312 24.2052L135.163 24.3198C134.628 24.7374 134.05 24.9284 133.353 24.9284M130.899 19.3171C130.748 19.4208 130.564 19.5109 130.378 19.5928L128.676 20.2778C127.752 20.6463 127.303 21.3013 127.303 22.2701C127.303 23.4901 127.787 24.0851 128.784 24.0851C130.529 24.0851 130.897 22.4639 130.897 21.1048V19.3171H130.899Z" fill="#575959"/>
<path d="M51.9973 0H51.2732V31.9973H51.9973V0Z" fill="#575959"/>
<path d="M32.3709 30.9606C34.9485 30.9606 36.8533 30.311 38.0394 29.0283C39.2228 27.7483 39.8199 25.8269 39.8199 23.3106C39.8199 21.0918 39.5606 19.6453 39.0526 19.0203C38.5663 18.3571 37.3829 18.0323 35.4483 18.0323C35.2754 18.0323 34.7486 18.0323 34.5405 17.9532C34.4676 17.9177 34.3622 17.8358 34.3622 17.5602C34.3622 17.4155 34.3622 16.9679 35.243 16.9679L35.805 17.0089H47.3527C47.7283 17.0089 47.9795 17.0607 48.1227 17.1672L48.1633 17.1999L48.2119 17.2217C48.2767 17.2463 48.3659 17.3746 48.3659 17.5602C48.3659 17.7457 48.2605 17.8768 48.0498 17.9532C47.8769 18.0078 47.6283 18.0323 47.2798 18.0323H46.8637C45.8505 18.0323 45.1075 18.3407 44.5887 18.9766C44.07 19.6125 43.8187 20.9307 43.8187 22.9995C43.8187 24.5742 43.843 25.9252 43.8835 26.905C43.9592 27.8848 44.0294 28.5043 44.097 28.8727C44.2159 29.3749 44.2969 29.6014 44.3482 29.7106L44.3699 29.7625L44.4104 29.8089C44.4563 29.8634 44.486 29.9508 44.486 30.0136C44.486 30.18 44.4293 30.3765 44.1672 30.3765C44.1051 30.3765 43.8835 30.2947 43.508 30.1391C43.1351 29.9808 42.765 29.9017 42.4218 29.9017C41.7301 29.9017 40.2874 30.251 38.007 30.966C35.778 31.6429 32.1629 31.9895 32.1629 31.9895L31.8062 32.0031C23.3927 32.0031 18.9994 24.9727 17.119 21.976L17.0757 21.9023L17.0001 21.785C16.8866 21.6021 16.7839 21.4384 16.6921 21.2937L7.43821 7.0063V26.2418C7.43821 26.864 7.59221 27.5409 7.93265 27.9612C8.71078 28.9191 9.70236 29.3394 11.1424 29.3394C11.3424 29.3176 11.5693 29.304 11.7693 29.304C12.9257 29.304 13.05 29.9835 13.05 30.2756C13.05 30.513 12.9662 31.2854 11.8503 31.2854H1.27798C0.126987 31.2854 0 30.6331 0 30.3574C0 29.7079 0.459315 29.5196 0.602514 29.4786C0.799749 29.394 1.08885 29.3394 1.39956 29.3394C2.75049 29.3394 4.40402 28.668 4.93629 27.893C5.20647 27.5027 5.44154 26.6566 5.44154 26.2418V4.96758C4.97682 4.57731 4.47157 4.32622 3.9339 4.21978C3.30707 4.09424 2.4803 4.03146 1.47791 4.03146C1.24826 4.03146 1.0186 4.00144 0.778134 3.93867C0.367452 3.76946 0.154006 3.47198 0.154006 3.09807C0.154006 2.86063 0.248571 2.08008 1.43468 2.08008H10.0185C11.3397 2.08008 12.3718 4.47633 12.4177 4.57731L12.4528 4.64281C13.5066 6.55325 17.0568 12.9778 18.5698 15.3386C18.6914 15.5269 18.967 16.0182 19.3183 16.6404C20.3612 18.5099 22.3065 21.9815 23.8574 24.1212C27.0321 28.507 27.313 28.679 28.7775 29.7051C30.4094 30.8514 31.1227 30.8623 32.0818 30.9606C32.1521 30.9688 32.3709 30.9633 32.3709 30.9633" fill="#575959"/>
<path d="M26.951 26.3506C26.9267 26.3506 26.8997 26.3506 26.8754 26.3424C26.5593 26.2797 26.381 26.0231 25.3678 24.5848C25.1354 24.2328 24.8814 23.8589 24.6166 23.4604C22.7118 20.622 19.8506 16.3535 19.8127 14.8415C20.0208 9.35037 21.523 5.47489 24.4059 3.00768C26.5296 1.17911 28.9747 0.253906 31.6793 0.253906C32.4601 0.253906 33.2761 0.335783 34.111 0.485889C35.1512 0.674205 36.3724 1.08086 37.1019 1.36742C37.7233 1.61305 39.1769 2.13706 39.6525 2.309L39.8848 2.39361C40.1388 2.48913 40.3657 2.54099 40.5657 2.54099C41.206 2.54099 41.4438 2.04154 41.6707 1.44384C41.9571 0.753352 42.1463 0.504994 42.4273 0.466785C42.665 0.51864 42.7542 0.797019 42.7785 1.029V1.07813L42.765 1.76589L42.7542 2.62013C42.7137 5.02457 42.638 10.0299 42.6056 10.2619C42.5948 10.3383 42.5921 10.3765 42.5813 10.4229C42.5678 10.4748 42.4867 10.5512 42.4543 10.5512C42.3381 10.5676 42.2814 10.5731 42.2327 10.5731C42.0652 10.5731 41.9734 10.4857 41.9112 10.2674C41.8653 10.1337 41.8166 9.78977 41.768 9.42951C41.668 8.71446 41.5438 7.80836 41.3573 7.26798C41.2844 7.06875 41.233 6.89135 41.1817 6.72759L41.1493 6.62116C40.8737 5.73416 40.7197 5.24836 39.6119 4.23583C38.0935 2.87668 36.3265 2.0006 34.3676 1.64035C33.8921 1.55574 33.4139 1.51207 32.9384 1.51207C30.2581 1.51207 27.7184 2.88759 26.308 5.09826C24.6977 7.63642 23.9709 10.18 23.5386 14.8142C23.5116 15.0763 23.4981 15.4092 23.4981 15.805C23.4981 16.8612 23.6115 18.4523 23.9358 19.7923C24.3627 21.5963 25.5056 24.0608 26.9132 26.2333L26.9889 26.3479C26.9889 26.3479 26.9673 26.3534 26.9564 26.3534" fill="#575959"/>
</g>
<defs>
<clipPath id="clip0_4251_46297">
<rect width="135.314" height="32" fill="white"/>
</clipPath>
</defs>
</svg>
